<?xml version="1.0" encoding="UTF-8" standalone="no"?>
<!-- Created with Inkscape (http://www.inkscape.org/) -->

<svg
   xmlns:dc="http://purl.org/dc/elements/1.1/"
   xmlns:cc="http://creativecommons.org/ns#"
   xmlns:rdf="http://www.w3.org/1999/02/22-rdf-syntax-ns#"
   xmlns:svg="http://www.w3.org/2000/svg"
   xmlns="http://www.w3.org/2000/svg"
   xmlns:sodipodi="http://sodipodi.sourceforge.net/DTD/sodipodi-0.dtd"
   xmlns:inkscape="http://www.inkscape.org/namespaces/inkscape"
   width="297mm"
   height="210mm"
   id="svg2410"
   sodipodi:version="0.32"
   inkscape:version="0.48.4 r9939"
   sodipodi:docname="logo_ambiente_livre_oficial.svg"
   inkscape:output_extension="org.inkscape.output.svg.inkscape"
   version="1.1"
   inkscape:export-filename="/home/marcio/Área de Trabalho/sigacorp/milton.png"
   inkscape:export-xdpi="90"
   inkscape:export-ydpi="90">
  <defs
     id="defs2412">
    <inkscape:perspective
       sodipodi:type="inkscape:persp3d"
       inkscape:vp_x="0 : 372.04724 : 1"
       inkscape:vp_y="0 : 1000 : 0"
       inkscape:vp_z="1052.3622 : 372.04724 : 1"
       inkscape:persp3d-origin="526.18109 : 248.03149 : 1"
       id="perspective2419" />
  </defs>
  <sodipodi:namedview
     inkscape:document-units="mm"
     pagecolor="#ffffff"
     bordercolor="#666666"
     borderopacity="1.0"
     inkscape:pageopacity="0.0"
     inkscape:pageshadow="2"
     inkscape:zoom="0.34008714"
     inkscape:cx="-35.218667"
     inkscape:cy="-1504.8369"
     inkscape:current-layer="layer1"
     id="namedview2414"
     showgrid="false"
     inkscape:window-width="1301"
     inkscape:window-height="744"
     inkscape:window-x="65"
     inkscape:window-y="24"
     showguides="true"
     inkscape:guide-bbox="true"
     inkscape:window-maximized="1">
    <sodipodi:guide
       orientation="0,1"
       position="8.2311337,745.74071"
       id="guide3642" />
  </sodipodi:namedview>
  <metadata
     id="metadata2416">
    <rdf:RDF>
      <cc:Work
         rdf:about="">
        <dc:format>image/svg+xml</dc:format>
        <dc:type
           rdf:resource="http://purl.org/dc/dcmitype/StillImage" />
        <dc:title></dc:title>
      </cc:Work>
    </rdf:RDF>
  </metadata>
  <g
     inkscape:label="Layer 1"
     inkscape:groupmode="layer"
     id="layer1">
    <rect
       style="fill:#0000ff;fill-rule:evenodd;stroke:#000000;stroke-width:1px;stroke-linecap:butt;stroke-linejoin:miter;stroke-opacity:1"
       id="rect3055"
       width="1202.6329"
       height="611.60797"
       x="-2.9404302"
       y="-1214.2272" />
    <g
       id="g3810"
       transform="matrix(3.0219912,0,0,3.0219912,-1749.3616,49.527861)"
       inkscape:export-filename="/home/rafaela/Área de Trabalho/logo.png"
       inkscape:export-xdpi="89"
       inkscape:export-ydpi="89">
      <path
         inkscape:connector-curvature="0"
         style="fill:#cccccc;fill-opacity:1;fill-rule:nonzero;stroke:none"
         d="m 388.70196,104.66771 c -5.42073,0.0317 -10.96722,0.22031 -16.6986,0.58513 -58.61783,3.73188 -100.26485,32.18563 -124.88943,56.51704 l 21.01599,0.31661 c 25.22837,-21.65529 63.21106,-43.6127 113.96884,-46.96218 11.45972,-0.75621 22.22031,-0.80646 32.44452,-0.28424 62.43428,3.18873 102.65923,28.20607 131.4929,51.05878 l 1.52382,0 c -29.41395,-24.89437 -71.75598,-57.0658 -143.04852,-60.87101 -5.1121,-0.2728 -10.38898,-0.39577 -15.80952,-0.36452 l 0,0.004 z"
         id="path3790"
         inkscape:export-filename="/media/UDISK/certificadoAL/pauloEduardo.png"
         inkscape:export-xdpi="89"
         inkscape:export-ydpi="89" />
      <text
         sodipodi:linespacing="125%"
         id="text3792"
         y="195.4879"
         x="235.49023"
         style="font-size:42.36074066px;font-style:normal;font-variant:normal;font-weight:normal;font-stretch:normal;text-align:start;line-height:125%;writing-mode:lr-tb;text-anchor:start;fill:#666666;fill-opacity:1;stroke:none;font-family:Cicle;-inkscape-font-specification:Bitstream Charter"
         xml:space="preserve"
         inkscape:export-filename="/media/UDISK/certificadoAL/pauloEduardo.png"
         inkscape:export-xdpi="89"
         inkscape:export-ydpi="89"><tspan
           y="195.4879"
           x="235.49023"
           id="tspan3794"
           sodipodi:role="line">Ambiente Livre</tspan></text>
      <g
         style="fill:#4fbae3;fill-opacity:1;stroke:#4fbae3;stroke-opacity:1"
         transform="matrix(1.5524698,0,0,1.5524698,-276.45343,-369.28257)"
         id="g3796"
         inkscape:export-filename="/media/UDISK/certificadoAL/pauloEduardo.png"
         inkscape:export-xdpi="89"
         inkscape:export-ydpi="89">
        <g
           style="fill:#4fbae3;fill-opacity:1;stroke:#4fbae3;stroke-opacity:1"
           id="g3798"
           transform="matrix(0.9942595,0.1069953,-0.1069953,0.9942595,37.047623,-47.58284)">
          <path
             inkscape:connector-curvature="0"
             style="fill:#4fbae3;fill-opacity:1;fill-rule:nonzero;stroke:#4fbae3;stroke-width:0.47866735;stroke-linejoin:miter;stroke-miterlimit:4;stroke-opacity:1;stroke-dashoffset:0"
             d="m 381.93526,348.35784 c 11.55101,-4.42015 20.01804,-6.4587 31.15838,-0.64068 8.46463,-3.74485 19.20551,-6.4667 30.15594,-1.64303 -14.19373,-2.96968 -23.28038,0.26325 -30.42008,4.37281 -3.35141,-6.40036 -23.53056,-6.11191 -30.89424,-2.0891 l 0,0 z"
             id="path3800"
             sodipodi:nodetypes="ccccc" />
          <path
             inkscape:connector-curvature="0"
             sodipodi:nodetypes="ccccc"
             id="path3802"
             d="m 332.32991,326.27445 c 13.39482,-7.53055 26.1417,-9.02575 42.29854,0.30201 14.58506,-4.73836 28.04063,-9.19666 40.97615,-1.0956 -15.62726,-6.56052 -27.57641,-3.66082 -41.43715,4.78935 -5.29342,-9.03769 -30.73556,-12.12775 -41.83754,-3.99576 l 0,0 z"
             style="fill:#4fbae3;fill-opacity:1;fill-rule:nonzero;stroke:#4fbae3;stroke-width:0.6496861;stroke-linejoin:miter;stroke-miterlimit:4;stroke-opacity:1;stroke-dashoffset:0" />
        </g>
      </g>
      <text
         xml:space="preserve"
         style="font-size:13.62722683px;font-style:normal;font-variant:normal;font-weight:normal;font-stretch:normal;text-align:start;line-height:125%;writing-mode:lr-tb;text-anchor:start;fill:#666666;fill-opacity:1;stroke:none;font-family:Hor;-inkscape-font-specification:Hor"
         x="487.6908"
         y="216.17879"
         id="text3804"
         sodipodi:linespacing="125%"
         inkscape:export-filename="/media/UDISK/certificadoAL/pauloEduardo.png"
         inkscape:export-xdpi="89"
         inkscape:export-ydpi="89"><tspan
           sodipodi:role="line"
           id="tspan3806"
           x="487.6908"
           y="216.17879">Tecnologia</tspan></text>
      <path
         inkscape:connector-curvature="0"
         sodipodi:nodetypes="ccccc"
         id="path3808"
         d="m 236.82434,202.23439 c 36.61772,-10.35588 233.93122,24.43998 249.98779,13.25558 l 1.06018,1.36809 c -33.76679,11.97757 -232.38958,-26.15308 -249.98763,-6.62779 l -1.06034,-7.99588 z"
         style="fill:#cccccc;fill-opacity:1;fill-rule:nonzero;stroke:none;stroke-width:0.61000001;marker:none;visibility:visible;display:inline;overflow:visible;enable-background:accumulate"
         inkscape:export-filename="/media/UDISK/certificadoAL/pauloEduardo.png"
         inkscape:export-xdpi="89"
         inkscape:export-ydpi="89" />
    </g>
    <path
       inkscape:connector-curvature="0"
       style="fill:#cccccc;fill-opacity:1;fill-rule:nonzero;stroke:none"
       d="m -545.0756,-73.001951 c -16.3814,0.0958 -33.14284,0.665774 -50.46302,1.768257 -177.14257,11.277709 -302.99949,97.264691 -377.41476,170.793998 l 63.51014,0.956796 c 76.23991,-65.442099 191.02327,-131.797199 344.41283,-141.919298 34.63117,-2.28526 67.14958,-2.437115 98.04705,-0.858971 188.67585,9.636314 310.23529,85.238495 397.370391,154.299179 l 4.60497,0 C -153.8967,36.807448 -281.85394,-60.414331 -497.29937,-71.913642 c -15.44872,-0.824399 -31.3954,-1.196013 -47.77623,-1.101576 l 0,0.01209 z"
       id="path2997"
       inkscape:export-filename="/media/UDISK/certificadoAL/pauloEduardo.png"
       inkscape:export-xdpi="89"
       inkscape:export-ydpi="89" />
    <text
       sodipodi:linespacing="125%"
       id="text2999"
       y="201.45586"
       x="-1008.0801"
       style="font-size:128.01377869px;font-style:normal;font-variant:normal;font-weight:normal;font-stretch:normal;text-align:start;line-height:125%;writing-mode:lr-tb;text-anchor:start;fill:#666666;fill-opacity:1;stroke:none;font-family:Cicle;-inkscape-font-specification:Bitstream Charter"
       xml:space="preserve"
       inkscape:export-filename="/media/UDISK/certificadoAL/pauloEduardo.png"
       inkscape:export-xdpi="89"
       inkscape:export-ydpi="89"><tspan
         y="201.45586"
         x="-1008.0801"
         id="tspan3001"
         sodipodi:role="line">Ambiente Livre</tspan></text>
    <g
       style="fill:#cccccc;fill-opacity:1;stroke:#cccccc;stroke-opacity:1"
       transform="matrix(4.6915501,0,0,4.6915501,-2555.1693,-1505.2755)"
       id="g3003"
       inkscape:export-filename="/media/UDISK/certificadoAL/pauloEduardo.png"
       inkscape:export-xdpi="89"
       inkscape:export-ydpi="89">
      <g
         style="fill:#cccccc;fill-opacity:1;stroke:#cccccc;stroke-opacity:1"
         id="g3005"
         transform="matrix(0.9942595,0.1069953,-0.1069953,0.9942595,37.047623,-47.58284)">
        <path
           inkscape:connector-curvature="0"
           style="fill:#cccccc;fill-opacity:1;fill-rule:nonzero;stroke:#cccccc;stroke-width:0.47866734999999999;stroke-linejoin:miter;stroke-miterlimit:4;stroke-opacity:1;stroke-dashoffset:0"
           d="m 381.93526,348.35784 c 11.55101,-4.42015 20.01804,-6.4587 31.15838,-0.64068 8.46463,-3.74485 19.20551,-6.4667 30.15594,-1.64303 -14.19373,-2.96968 -23.28038,0.26325 -30.42008,4.37281 -3.35141,-6.40036 -23.53056,-6.11191 -30.89424,-2.0891 l 0,0 z"
           id="path3007"
           sodipodi:nodetypes="ccccc" />
        <path
           inkscape:connector-curvature="0"
           sodipodi:nodetypes="ccccc"
           id="path3009"
           d="m 332.32991,326.27445 c 13.39482,-7.53055 26.1417,-9.02575 42.29854,0.30201 14.58506,-4.73836 28.04063,-9.19666 40.97615,-1.0956 -15.62726,-6.56052 -27.57641,-3.66082 -41.43715,4.78935 -5.29342,-9.03769 -30.73556,-12.12775 -41.83754,-3.99576 l 0,0 z"
           style="fill:#cccccc;fill-opacity:1;fill-rule:nonzero;stroke:#cccccc;stroke-width:0.64968610000000004;stroke-linejoin:miter;stroke-miterlimit:4;stroke-opacity:1;stroke-dashoffset:0" />
      </g>
    </g>
    <text
       xml:space="preserve"
       style="font-size:41.18135834px;font-style:normal;font-variant:normal;font-weight:normal;font-stretch:normal;text-align:start;line-height:125%;writing-mode:lr-tb;text-anchor:start;fill:#666666;fill-opacity:1;stroke:none;font-family:Hor;-inkscape-font-specification:Hor"
       x="-245.93221"
       y="263.98355"
       id="text3011"
       sodipodi:linespacing="125%"
       inkscape:export-filename="/media/UDISK/certificadoAL/pauloEduardo.png"
       inkscape:export-xdpi="89"
       inkscape:export-ydpi="89"><tspan
         sodipodi:role="line"
         id="tspan3013"
         x="-245.93221"
         y="263.98355">Tecnologia</tspan></text>
    <path
       inkscape:connector-curvature="0"
       sodipodi:nodetypes="ccccc"
       id="path3015"
       d="m -1004.0484,221.8437 c 110.6584,-31.29538 706.93806,73.8574 755.46087,40.05824 l 3.20386,4.13436 c -102.04294,36.19611 -702.27927,-79.03438 -755.46043,-20.02912 l -3.2043,-24.16348 z"
       style="fill:#cccccc;fill-opacity:1;fill-rule:nonzero;stroke:none;stroke-width:0.61000001;marker:none;visibility:visible;display:inline;overflow:visible;enable-background:accumulate"
       inkscape:export-filename="/media/UDISK/certificadoAL/pauloEduardo.png"
       inkscape:export-xdpi="89"
       inkscape:export-ydpi="89" />
    <path
       inkscape:export-ydpi="89"
       inkscape:export-xdpi="89"
       inkscape:export-filename="/home/rafaela/Área de Trabalho/logo_branca.png"
       id="path3005"
       d="m -230.45035,2199.945 c -16.3814,0.096 -33.14284,0.6657 -50.46302,1.7682 -177.14257,11.2777 -302.99949,97.2647 -377.41475,170.794 l 63.51013,0.9568 c 76.23991,-65.4421 191.02327,-131.7972 344.41283,-141.9193 34.63117,-2.2853 67.14958,-2.4371 98.04705,-0.859 188.675809,9.6363 310.23531,85.2385 397.37041,154.2992 l 4.605,0 c -88.8888,-75.2305 -216.846001,-172.4523 -432.29142,-183.9516 -15.44872,-0.8244 -31.3954,-1.1961 -47.77623,-1.1016 l 0,0.012 z"
       style="fill:#4fbae3;fill-opacity:1;fill-rule:nonzero;stroke:none"
       inkscape:connector-curvature="0" />
    <text
       inkscape:export-ydpi="89"
       inkscape:export-xdpi="89"
       inkscape:export-filename="/home/rafaela/Área de Trabalho/logo_branca.png"
       xml:space="preserve"
       style="font-size:128.01377869px;font-style:normal;font-variant:normal;font-weight:normal;font-stretch:normal;text-align:start;line-height:125%;writing-mode:lr-tb;text-anchor:start;fill:#ffffff;fill-opacity:1;stroke:none;font-family:Cicle;-inkscape-font-specification:Bitstream Charter"
       x="-693.45477"
       y="2474.4028"
       id="text3007"
       sodipodi:linespacing="125%"><tspan
         sodipodi:role="line"
         id="tspan3009"
         x="-693.45477"
         y="2474.4028">Ambiente Livre</tspan></text>
    <g
       inkscape:export-ydpi="89"
       inkscape:export-xdpi="89"
       inkscape:export-filename="/home/rafaela/Área de Trabalho/logo_branca.png"
       id="g3011"
       transform="matrix(4.6915501,0,0,4.6915501,-2240.544,767.67143)"
       style="fill:#ffffff;fill-opacity:1;stroke:#ffffff;stroke-opacity:1">
      <g
         transform="matrix(0.9942595,0.1069953,-0.1069953,0.9942595,37.047623,-47.58284)"
         id="g3013"
         style="fill:#ffffff;fill-opacity:1;stroke:#ffffff;stroke-opacity:1">
        <path
           sodipodi:nodetypes="ccccc"
           id="path3016"
           d="m 381.93526,348.35784 c 11.55101,-4.42015 20.01804,-6.4587 31.15838,-0.64068 8.46463,-3.74485 19.20551,-6.4667 30.15594,-1.64303 -14.19373,-2.96968 -23.28038,0.26325 -30.42008,4.37281 -3.35141,-6.40036 -23.53056,-6.11191 -30.89424,-2.0891 l 0,0 z"
           style="fill:#ffffff;fill-opacity:1;fill-rule:nonzero;stroke:#ffffff;stroke-width:0.47866735;stroke-linejoin:miter;stroke-miterlimit:4;stroke-opacity:1;stroke-dashoffset:0"
           inkscape:connector-curvature="0" />
        <path
           style="fill:#ffffff;fill-opacity:1;fill-rule:nonzero;stroke:#ffffff;stroke-width:0.6496861;stroke-linejoin:miter;stroke-miterlimit:4;stroke-opacity:1;stroke-dashoffset:0"
           d="m 332.32991,326.27445 c 13.39482,-7.53055 26.1417,-9.02575 42.29854,0.30201 14.58506,-4.73836 28.04063,-9.19666 40.97615,-1.0956 -15.62726,-6.56052 -27.57641,-3.66082 -41.43715,4.78935 -5.29342,-9.03769 -30.73556,-12.12775 -41.83754,-3.99576 l 0,0 z"
           id="path3018"
           sodipodi:nodetypes="ccccc"
           inkscape:connector-curvature="0" />
      </g>
    </g>
    <text
       inkscape:export-ydpi="89"
       inkscape:export-xdpi="89"
       inkscape:export-filename="/home/rafaela/Área de Trabalho/logo_branca.png"
       sodipodi:linespacing="125%"
       id="text3020"
       y="2536.9304"
       x="68.693054"
       style="font-size:41.18135834px;font-style:normal;font-variant:normal;font-weight:normal;font-stretch:normal;text-align:start;line-height:125%;writing-mode:lr-tb;text-anchor:start;fill:#ffffff;fill-opacity:1;stroke:none;font-family:Hor;-inkscape-font-specification:Hor"
       xml:space="preserve"><tspan
         y="2536.9304"
         x="68.693054"
         id="tspan3022"
         sodipodi:role="line">Tecnologia</tspan></text>
    <path
       inkscape:export-ydpi="89"
       inkscape:export-xdpi="89"
       inkscape:export-filename="/home/rafaela/Área de Trabalho/logo_branca.png"
       style="fill:#4fbae3;fill-opacity:1;fill-rule:nonzero;stroke:none;stroke-width:0.61000001;marker:none;visibility:visible;display:inline;overflow:visible;enable-background:accumulate"
       d="m -689.42312,2494.7906 c 110.65837,-31.2954 706.938029,73.8574 755.460819,40.0582 l 3.2039,4.1344 c -102.04296,36.1961 -702.279289,-79.0344 -755.460419,-20.0292 l -3.2043,-24.1634 z"
       id="path3024"
       sodipodi:nodetypes="ccccc"
       inkscape:connector-curvature="0" />
    <path
       inkscape:export-ydpi="89"
       inkscape:export-xdpi="89"
       inkscape:export-filename="/home/rafaela/Área de Trabalho/logo_preta.png"
       id="path3017"
       d="m -1559.7218,-32.38701 c -16.3814,0.0958 -33.1428,0.665774 -50.463,1.768257 -177.1426,11.277709 -302.9995,97.264691 -377.4148,170.794003 l 63.5102,0.95679 c 76.2399,-65.442098 191.0232,-131.7971976 344.4128,-141.91929658 34.6312,-2.28526002 67.1496,-2.43711502 98.0471,-0.85897102 188.6758,9.636314 310.2352,85.2384946 397.3703,154.2991776 l 4.605,0 c -88.8887,-75.230561 -216.8459,-172.45234 -432.2914,-183.951651 -15.4487,-0.824399 -31.3954,-1.196013 -47.7762,-1.101576 l 0,0.01209 z"
       style="fill:#000000;fill-opacity:1;fill-rule:nonzero;stroke:#000000"
       inkscape:connector-curvature="0" />
    <text
       inkscape:export-ydpi="89"
       inkscape:export-xdpi="89"
       inkscape:export-filename="/home/rafaela/Área de Trabalho/logo_preta.png"
       xml:space="preserve"
       style="font-size:128.01377869000000942px;font-style:normal;font-variant:normal;font-weight:normal;font-stretch:normal;text-align:start;line-height:125%;writing-mode:lr-tb;text-anchor:start;fill:#000000;fill-opacity:1;stroke:none;font-family:Cicle;-inkscape-font-specification:Bitstream Charter"
       x="-2022.7263"
       y="242.0708"
       id="text3019"
       sodipodi:linespacing="125%"><tspan
         sodipodi:role="line"
         id="tspan3021"
         x="-2022.7263"
         y="242.0708">Ambiente Livre</tspan></text>
    <g
       inkscape:export-ydpi="89"
       inkscape:export-xdpi="89"
       inkscape:export-filename="/home/rafaela/Área de Trabalho/logo_preta.png"
       id="g3023"
       transform="matrix(4.6915501,0,0,4.6915501,-3569.8155,-1464.6606)"
       style="fill:#000000;fill-opacity:1;stroke:#000000;stroke-opacity:1">
      <g
         transform="matrix(0.9942595,0.1069953,-0.1069953,0.9942595,37.047623,-47.58284)"
         id="g3025"
         style="fill:#000000;fill-opacity:1;stroke:#000000;stroke-opacity:1">
        <path
           sodipodi:nodetypes="ccccc"
           id="path3027"
           d="m 381.93526,348.35784 c 11.55101,-4.42015 20.01804,-6.4587 31.15838,-0.64068 8.46463,-3.74485 19.20551,-6.4667 30.15594,-1.64303 -14.19373,-2.96968 -23.28038,0.26325 -30.42008,4.37281 -3.35141,-6.40036 -23.53056,-6.11191 -30.89424,-2.0891 l 0,0 z"
           style="fill:#000000;fill-opacity:1;fill-rule:nonzero;stroke:#000000;stroke-width:0.47866734999999999;stroke-linejoin:miter;stroke-miterlimit:4;stroke-opacity:1;stroke-dashoffset:0"
           inkscape:connector-curvature="0" />
        <path
           style="fill:#000000;fill-opacity:1;fill-rule:nonzero;stroke:#000000;stroke-width:0.64968610000000004;stroke-linejoin:miter;stroke-miterlimit:4;stroke-opacity:1;stroke-dashoffset:0"
           d="m 332.32991,326.27445 c 13.39482,-7.53055 26.1417,-9.02575 42.29854,0.30201 14.58506,-4.73836 28.04063,-9.19666 40.97615,-1.0956 -15.62726,-6.56052 -27.57641,-3.66082 -41.43715,4.78935 -5.29342,-9.03769 -30.73556,-12.12775 -41.83754,-3.99576 l 0,0 z"
           id="path3029"
           sodipodi:nodetypes="ccccc"
           inkscape:connector-curvature="0" />
      </g>
    </g>
    <text
       inkscape:export-ydpi="89"
       inkscape:export-xdpi="89"
       inkscape:export-filename="/home/rafaela/Área de Trabalho/logo_preta.png"
       sodipodi:linespacing="125%"
       id="text3031"
       y="304.59848"
       x="-1260.5784"
       style="font-size:41.18135834000000273px;font-style:normal;font-variant:normal;font-weight:normal;font-stretch:normal;text-align:start;line-height:125%;writing-mode:lr-tb;text-anchor:start;fill:#000000;fill-opacity:1;stroke:none;font-family:Hor;-inkscape-font-specification:Hor"
       xml:space="preserve"><tspan
         y="304.59848"
         x="-1260.5784"
         id="tspan3033"
         sodipodi:role="line">Tecnologia</tspan></text>
    <path
       inkscape:export-ydpi="89"
       inkscape:export-xdpi="89"
       inkscape:export-filename="/home/rafaela/Área de Trabalho/logo_preta.png"
       style="fill:#000000;fill-opacity:1;fill-rule:nonzero;stroke:none;stroke-width:0.61000001000000004;marker:none;visibility:visible;display:inline;overflow:visible;enable-background:accumulate"
       d="m -2018.6946,262.45864 c 110.6584,-31.29538 706.9381,73.8574 755.4609,40.05824 l 3.2038,4.13436 c -102.0429,36.19611 -702.2792,-79.03438 -755.4604,-20.02912 l -3.2043,-24.16348 z"
       id="path3035"
       sodipodi:nodetypes="ccccc"
       inkscape:connector-curvature="0" />
    <path
       inkscape:connector-curvature="0"
       style="fill:#4fbae3;fill-opacity:1;fill-rule:nonzero;stroke:none"
       d="m -1683.6295,621.07744 c -18.1993,0.10643 -36.8206,0.73965 -56.0628,1.96448 -196.7999,12.52917 -336.6229,108.058 -419.296,189.74673 l 70.5579,1.06298 c 84.7001,-72.70411 212.2207,-146.42253 382.6317,-157.66786 38.4742,-2.53885 74.6011,-2.70756 108.9271,-0.95429 209.613,10.70563 344.6617,94.69728 441.466,171.42152 l 5.116,0 c -98.7525,-83.57878 -240.9089,-191.58911 -480.2621,-204.36448 -17.163,-0.91588 -34.8793,-1.32874 -53.0778,-1.22382 l 0,0.0134 z"
       id="path3028"
       inkscape:export-filename="/home/rafaela/Área de Trabalho/logo_ambiente_livre.png"
       inkscape:export-xdpi="89"
       inkscape:export-ydpi="89" />
    <text
       sodipodi:linespacing="125%"
       id="text3030"
       y="925.99146"
       x="-2198.0127"
       style="font-size:142.2192688px;font-style:normal;font-variant:normal;font-weight:normal;font-stretch:normal;text-align:start;line-height:125%;writing-mode:lr-tb;text-anchor:start;fill:#666666;fill-opacity:1;stroke:none;font-family:Cicle;-inkscape-font-specification:Bitstream Charter"
       xml:space="preserve"
       inkscape:export-filename="/home/rafaela/Área de Trabalho/logo_ambiente_livre.png"
       inkscape:export-xdpi="89"
       inkscape:export-ydpi="89"><tspan
         y="925.99146"
         x="-2198.0127"
         id="tspan3032"
         sodipodi:role="line">Ambiente Livre</tspan></text>
    <g
       style="fill:#808080;fill-opacity:1;stroke:#808080;stroke-opacity:1"
       transform="matrix(5.212164,0,0,5.212164,-3916.7802,-970.13328)"
       id="g3034"
       inkscape:export-filename="/home/rafaela/Área de Trabalho/logo_ambiente_livre.png"
       inkscape:export-xdpi="89"
       inkscape:export-ydpi="89">
      <g
         style="fill:#808080;fill-opacity:1;stroke:#808080;stroke-opacity:1"
         id="g3036"
         transform="matrix(0.9942595,0.1069953,-0.1069953,0.9942595,37.047623,-47.58284)">
        <path
           inkscape:connector-curvature="0"
           style="fill:#808080;fill-opacity:1;fill-rule:nonzero;stroke:#808080;stroke-width:0.47866735;stroke-linejoin:miter;stroke-miterlimit:4;stroke-opacity:1;stroke-dashoffset:0"
           d="m 381.93526,348.35784 c 11.55101,-4.42015 20.01804,-6.4587 31.15838,-0.64068 8.46463,-3.74485 19.20551,-6.4667 30.15594,-1.64303 -14.19373,-2.96968 -23.28038,0.26325 -30.42008,4.37281 -3.35141,-6.40036 -23.53056,-6.11191 -30.89424,-2.0891 l 0,0 z"
           id="path3038"
           sodipodi:nodetypes="ccccc" />
        <path
           inkscape:connector-curvature="0"
           sodipodi:nodetypes="ccccc"
           id="path3040"
           d="m 332.32991,326.27445 c 13.39482,-7.53055 26.1417,-9.02575 42.29854,0.30201 14.58506,-4.73836 28.04063,-9.19666 40.97615,-1.0956 -15.62726,-6.56052 -27.57641,-3.66082 -41.43715,4.78935 -5.29342,-9.03769 -30.73556,-12.12775 -41.83754,-3.99576 l 0,0 z"
           style="fill:#808080;fill-opacity:1;fill-rule:nonzero;stroke:#808080;stroke-width:0.6496861;stroke-linejoin:miter;stroke-miterlimit:4;stroke-opacity:1;stroke-dashoffset:0" />
      </g>
    </g>
    <text
       xml:space="preserve"
       style="font-size:45.75119019px;font-style:normal;font-variant:normal;font-weight:normal;font-stretch:normal;text-align:start;line-height:125%;writing-mode:lr-tb;text-anchor:start;fill:#666666;fill-opacity:1;stroke:none;font-family:Hor;-inkscape-font-specification:Hor"
       x="-1351.2906"
       y="995.4577"
       id="text3042"
       sodipodi:linespacing="125%"
       inkscape:export-filename="/home/rafaela/Área de Trabalho/logo_ambiente_livre.png"
       inkscape:export-xdpi="89"
       inkscape:export-ydpi="89"><tspan
         sodipodi:role="line"
         id="tspan3044"
         x="-1351.2906"
         y="995.4577">Tecnologia</tspan></text>
    <path
       inkscape:connector-curvature="0"
       sodipodi:nodetypes="ccccc"
       id="path3046"
       d="m -2193.5338,948.64165 c 122.938,-34.76818 785.3859,82.05325 839.2932,44.50344 l 3.5593,4.59314 c -113.3664,40.21277 -780.21,-87.8047 -839.2926,-22.25172 l -3.5599,-26.84486 z"
       style="fill:#4fbae3;fill-opacity:1;fill-rule:nonzero;stroke:none;stroke-width:0.61000001;marker:none;visibility:visible;display:inline;overflow:visible;enable-background:accumulate"
       inkscape:export-filename="/home/rafaela/Área de Trabalho/logo_ambiente_livre.png"
       inkscape:export-xdpi="89"
       inkscape:export-ydpi="89" />
    <path
       inkscape:export-ydpi="89"
       inkscape:export-xdpi="89"
       inkscape:export-filename="/home/rafaela/Área de Trabalho/logo_branca.png"
       id="path3057"
       d="m -1685.7087,1169.9844 c -18.1993,0.1064 -36.8206,0.7396 -56.0628,1.9645 -196.7999,12.5291 -336.6229,108.058 -419.296,189.7467 l 70.5579,1.063 c 84.7001,-72.7041 212.2207,-146.4225 382.6317,-157.6679 38.4742,-2.5388 74.6011,-2.7075 108.9271,-0.9543 209.613,10.7057 344.6617,94.6973 441.466,171.4216 l 5.116,0 c -98.7525,-83.5788 -240.9089,-191.5892 -480.2621,-204.3645 -17.163,-0.9159 -34.8793,-1.3288 -53.0778,-1.2238 l 0,0.013 z"
       style="fill:#ffffff;fill-opacity:1;fill-rule:nonzero;stroke:none"
       inkscape:connector-curvature="0" />
    <text
       inkscape:export-ydpi="89"
       inkscape:export-xdpi="89"
       inkscape:export-filename="/home/rafaela/Área de Trabalho/logo_branca.png"
       xml:space="preserve"
       style="font-size:142.21926880000000892px;font-style:normal;font-variant:normal;font-weight:normal;font-stretch:normal;text-align:start;line-height:125%;writing-mode:lr-tb;text-anchor:start;fill:#ffffff;fill-opacity:1;stroke:none;font-family:Cicle;-inkscape-font-specification:Bitstream Charter"
       x="-2200.0918"
       y="1474.8984"
       id="text3059"
       sodipodi:linespacing="125%"><tspan
         sodipodi:role="line"
         id="tspan3061"
         x="-2200.0918"
         y="1474.8984">Ambiente Livre</tspan></text>
    <g
       inkscape:export-ydpi="89"
       inkscape:export-xdpi="89"
       inkscape:export-filename="/home/rafaela/Área de Trabalho/logo_branca.png"
       id="g3063"
       transform="matrix(5.212164,0,0,5.212164,-3918.8594,-421.22633)"
       style="fill:#ffffff;fill-opacity:1;stroke:#ffffff;stroke-opacity:1">
      <g
         transform="matrix(0.9942595,0.1069953,-0.1069953,0.9942595,37.047623,-47.58284)"
         id="g3065"
         style="fill:#ffffff;fill-opacity:1;stroke:#ffffff;stroke-opacity:1">
        <path
           sodipodi:nodetypes="ccccc"
           id="path3067"
           d="m 381.93526,348.35784 c 11.55101,-4.42015 20.01804,-6.4587 31.15838,-0.64068 8.46463,-3.74485 19.20551,-6.4667 30.15594,-1.64303 -14.19373,-2.96968 -23.28038,0.26325 -30.42008,4.37281 -3.35141,-6.40036 -23.53056,-6.11191 -30.89424,-2.0891 l 0,0 z"
           style="fill:#ffffff;fill-opacity:1;fill-rule:nonzero;stroke:#ffffff;stroke-width:0.47866734999999999;stroke-linejoin:miter;stroke-miterlimit:4;stroke-opacity:1;stroke-dashoffset:0"
           inkscape:connector-curvature="0" />
        <path
           style="fill:#ffffff;fill-opacity:1;fill-rule:nonzero;stroke:#ffffff;stroke-width:0.64968610000000004;stroke-linejoin:miter;stroke-miterlimit:4;stroke-opacity:1;stroke-dashoffset:0"
           d="m 332.32991,326.27445 c 13.39482,-7.53055 26.1417,-9.02575 42.29854,0.30201 14.58506,-4.73836 28.04063,-9.19666 40.97615,-1.0956 -15.62726,-6.56052 -27.57641,-3.66082 -41.43715,4.78935 -5.29342,-9.03769 -30.73556,-12.12775 -41.83754,-3.99576 l 0,0 z"
           id="path3069"
           sodipodi:nodetypes="ccccc"
           inkscape:connector-curvature="0" />
      </g>
    </g>
    <text
       inkscape:export-ydpi="89"
       inkscape:export-xdpi="89"
       inkscape:export-filename="/home/rafaela/Área de Trabalho/logo_branca.png"
       sodipodi:linespacing="125%"
       id="text3071"
       y="1544.3646"
       x="-1353.3699"
       style="font-size:45.75119019000000264px;font-style:normal;font-variant:normal;font-weight:normal;font-stretch:normal;text-align:start;line-height:125%;writing-mode:lr-tb;text-anchor:start;fill:#ffffff;fill-opacity:1;stroke:none;font-family:Hor;-inkscape-font-specification:Hor"
       xml:space="preserve"><tspan
         y="1544.3646"
         x="-1353.3699"
         id="tspan3073"
         sodipodi:role="line">Tecnologia</tspan></text>
    <path
       inkscape:export-ydpi="89"
       inkscape:export-xdpi="89"
       inkscape:export-filename="/home/rafaela/Área de Trabalho/logo_branca.png"
       style="fill:#ffffff;fill-opacity:1;fill-rule:nonzero;stroke:none;stroke-width:0.61000001000000004;marker:none;visibility:visible;display:inline;overflow:visible;enable-background:accumulate"
       d="m -2195.613,1497.5486 c 122.938,-34.7682 785.3859,82.0533 839.2932,44.5034 l 3.5593,4.5932 c -113.3664,40.2128 -780.21,-87.8047 -839.2926,-22.2517 l -3.5599,-26.8449 z"
       id="path3075"
       sodipodi:nodetypes="ccccc"
       inkscape:connector-curvature="0" />
    <path
       inkscape:connector-curvature="0"
       style="fill:#ffffff;fill-opacity:1;fill-rule:nonzero;stroke:none"
       d="m -3119.4121,189.94335 c -16.3814,0.0958 -33.1428,0.66577 -50.463,1.76825 -177.1426,11.27771 -302.9995,97.26469 -377.4147,170.794 l 63.5101,0.9568 c 76.2399,-65.4421 191.0233,-131.7972 344.4128,-141.9193 34.6312,-2.28526 67.1496,-2.43712 98.0471,-0.85897 188.6758,9.63631 310.2353,85.23849 397.3704,154.29918 l 4.6049,0 c -88.8887,-75.23056 -216.8459,-172.45234 -432.2913,-183.95165 -15.4488,-0.8244 -31.3954,-1.19602 -47.7763,-1.10158 l 0,0.0121 z"
       id="path3045"
       inkscape:export-filename="/home/rafaela/Área de Trabalho/logo_folder.png"
       inkscape:export-xdpi="89"
       inkscape:export-ydpi="89" />
    <text
       sodipodi:linespacing="125%"
       id="text3047"
       y="464.40121"
       x="-3582.4165"
       style="font-size:128.01377869px;font-style:normal;font-variant:normal;font-weight:normal;font-stretch:normal;text-align:start;line-height:125%;writing-mode:lr-tb;text-anchor:start;fill:#ffffff;fill-opacity:1;stroke:none;font-family:Cicle;-inkscape-font-specification:Bitstream Charter"
       xml:space="preserve"
       inkscape:export-filename="/home/rafaela/Área de Trabalho/logo_folder.png"
       inkscape:export-xdpi="89"
       inkscape:export-ydpi="89"><tspan
         y="464.40121"
         x="-3582.4165"
         id="tspan3049"
         sodipodi:role="line">Ambiente Livre</tspan></text>
    <g
       style="fill:#ffffff;fill-opacity:1;stroke:#ffffff;stroke-opacity:1"
       transform="matrix(4.6915501,0,0,4.6915501,-5129.5057,-1242.3302)"
       id="g3051"
       inkscape:export-filename="/home/rafaela/Área de Trabalho/logo_folder.png"
       inkscape:export-xdpi="89"
       inkscape:export-ydpi="89">
      <g
         style="fill:#ffffff;fill-opacity:1;stroke:#ffffff;stroke-opacity:1"
         id="g3053"
         transform="matrix(0.9942595,0.1069953,-0.1069953,0.9942595,37.047623,-47.58284)">
        <path
           inkscape:connector-curvature="0"
           style="fill:#ffffff;fill-opacity:1;fill-rule:nonzero;stroke:#ffffff;stroke-width:0.47866735;stroke-linejoin:miter;stroke-miterlimit:4;stroke-opacity:1;stroke-dashoffset:0"
           d="m 381.93526,348.35784 c 11.55101,-4.42015 20.01804,-6.4587 31.15838,-0.64068 8.46463,-3.74485 19.20551,-6.4667 30.15594,-1.64303 -14.19373,-2.96968 -23.28038,0.26325 -30.42008,4.37281 -3.35141,-6.40036 -23.53056,-6.11191 -30.89424,-2.0891 l 0,0 z"
           id="path3055"
           sodipodi:nodetypes="ccccc" />
        <path
           inkscape:connector-curvature="0"
           sodipodi:nodetypes="ccccc"
           id="path3058"
           d="m 332.32991,326.27445 c 13.39482,-7.53055 26.1417,-9.02575 42.29854,0.30201 14.58506,-4.73836 28.04063,-9.19666 40.97615,-1.0956 -15.62726,-6.56052 -27.57641,-3.66082 -41.43715,4.78935 -5.29342,-9.03769 -30.73556,-12.12775 -41.83754,-3.99576 l 0,0 z"
           style="fill:#ffffff;fill-opacity:1;fill-rule:nonzero;stroke:#ffffff;stroke-width:0.6496861;stroke-linejoin:miter;stroke-miterlimit:4;stroke-opacity:1;stroke-dashoffset:0" />
      </g>
    </g>
    <text
       xml:space="preserve"
       style="font-size:41.18135834px;font-style:normal;font-variant:normal;font-weight:normal;font-stretch:normal;text-align:start;line-height:125%;writing-mode:lr-tb;text-anchor:start;fill:#ffffff;fill-opacity:1;stroke:none;font-family:Hor;-inkscape-font-specification:Hor"
       x="-2820.2686"
       y="526.92877"
       id="text3060"
       sodipodi:linespacing="125%"
       inkscape:export-filename="/home/rafaela/Área de Trabalho/logo_folder.png"
       inkscape:export-xdpi="89"
       inkscape:export-ydpi="89"><tspan
         sodipodi:role="line"
         id="tspan3062"
         x="-2820.2686"
         y="526.92877">Tecnologia</tspan></text>
    <path
       inkscape:connector-curvature="0"
       sodipodi:nodetypes="ccccc"
       id="path3064"
       d="m -3578.3848,484.78904 c 110.6583,-31.2954 706.938,73.8574 755.4608,40.0582 l 3.2039,4.1344 c -102.043,36.1961 -702.2793,-79.0344 -755.4604,-20.0292 l -3.2043,-24.1634 z"
       style="fill:#ffffff;fill-opacity:1;fill-rule:nonzero;stroke:none;stroke-width:0.61000001000000004;marker:none;visibility:visible;display:inline;overflow:visible;enable-background:accumulate"
       inkscape:export-filename="/home/rafaela/Área de Trabalho/logo_folder.png"
       inkscape:export-xdpi="89"
       inkscape:export-ydpi="89" />
  </g>
</svg>
